<?xml version="1.0" encoding="UTF-8" standalone="no"?>
<!-- Generator: Adobe Illustrator 17.1.0, SVG Export Plug-In . SVG Version: 6.00 Build 0)  -->

<svg
   xmlns:dc="http://purl.org/dc/elements/1.1/"
   xmlns:cc="http://creativecommons.org/ns#"
   xmlns:rdf="http://www.w3.org/1999/02/22-rdf-syntax-ns#"
   xmlns:svg="http://www.w3.org/2000/svg"
   xmlns="http://www.w3.org/2000/svg"
   xmlns:sodipodi="http://sodipodi.sourceforge.net/DTD/sodipodi-0.dtd"
   xmlns:inkscape="http://www.inkscape.org/namespaces/inkscape"
   version="1.1"
   id="Capa_1"
   x="0px"
   y="0px"
   viewBox="0 0 333.561 333.561"
   style="enable-background:new 0 0 333.561 333.561;"
   xml:space="preserve"
   inkscape:version="0.91 r13725"
   sodipodi:docname="pac-man-ghost.svg"
   inkscape:export-filename="C:\Users\DarkAngel\Dropbox\PacktPublishing\Graphics\Logo\__src\pac-man-ghost.png"
   inkscape:export-xdpi="10.750926"
   inkscape:export-ydpi="10.750926"><metadata
     id="metadata39"><rdf:RDF><cc:Work
         rdf:about=""><dc:format>image/svg+xml</dc:format><dc:type
           rdf:resource="http://purl.org/dc/dcmitype/StillImage" /></cc:Work></rdf:RDF></metadata><defs
     id="defs37" /><sodipodi:namedview
     pagecolor="#ffffff"
     bordercolor="#666666"
     borderopacity="1"
     objecttolerance="10"
     gridtolerance="10"
     guidetolerance="10"
     inkscape:pageopacity="0"
     inkscape:pageshadow="2"
     inkscape:window-width="1920"
     inkscape:window-height="1027"
     id="namedview35"
     showgrid="false"
     inkscape:zoom="0.70751676"
     inkscape:cx="-69.963009"
     inkscape:cy="166.7805"
     inkscape:window-x="-8"
     inkscape:window-y="-8"
     inkscape:window-maximized="1"
     inkscape:current-layer="Capa_1" /><path
     d="M 295.023,70.021 C 284.37,49.642 269.645,33.404 251.26,21.756 228.47,7.32 200.047,0 166.78,0 133.513,0 105.09,7.32 82.3,21.757 63.914,33.404 49.19,49.643 38.537,70.022 20.792,103.966 20.28,137.91 20.28,141.668 l 0,182.064 c 0,1.4 10e-4,2.673 0.036,3.596 0.214,5.784 4.052,6.233 5.223,6.233 2.327,0 3.61,-1.173 7.316,-4.88 l 0.213,-0.214 34.969,-44.641 34.895,44.274 0.392,0.441 c 2.747,2.745 7.7,4.738 11.779,4.738 l 3.416,0 c 4.08,0 9.033,-1.993 11.779,-4.739 l 0.21,-0.21 35.064,-44.56 34.909,44.311 0.393,0.441 c 2.756,2.756 7.71,4.756 11.779,4.756 l 3.416,0 c 4.08,0 9.034,-1.993 11.78,-4.739 l 0.21,-0.21 35.063,-44.559 34.906,44.444 0.396,0.447 c 1.47,1.47 5.23,4.888 8.402,4.888 3.98,0 6.452,-3.763 6.452,-9.82 l 0,-182.061 c 0.002,-3.759 -0.51,-37.702 -18.255,-71.647 z"
     id="path3"
     inkscape:connector-curvature="0"
     sodipodi:nodetypes="scsscsscscccccsssccccsssccccsscs"
     style="fill:#ff6600;fill-opacity:1" /><g
     id="g5" /><g
     id="g7" /><g
     id="g9" /><g
     id="g11" /><g
     id="g13" /><g
     id="g15" /><g
     id="g17" /><g
     id="g19" /><g
     id="g21" /><g
     id="g23" /><g
     id="g25" /><g
     id="g27" /><g
     id="g29" /><g
     id="g31" /><g
     id="g33" /><text
     xml:space="preserve"
     style="font-style:normal;font-weight:normal;font-size:123.06362152px;line-height:125%;font-family:Desyal;-inkscape-font-specification:Desyal;letter-spacing:0px;word-spacing:0px;fill:#000000;fill-opacity:1;stroke:none;stroke-width:1px;stroke-linecap:butt;stroke-linejoin:miter;stroke-opacity:1"
     x="-271.35501"
     y="131.66138"
     id="text3367"
     sodipodi:linespacing="125%"
     transform="scale(1.0733666,0.93164814)"><tspan
       sodipodi:role="line"
       x="-271.35501"
       y="131.66138"
       id="tspan3371" /></text>
<text
     xml:space="preserve"
     style="font-style:normal;font-variant:normal;font-weight:normal;font-stretch:normal;font-size:125.80463409px;line-height:125%;font-family:Abuse;-inkscape-font-specification:Abuse;letter-spacing:0px;word-spacing:0px;fill:#ffffff;fill-opacity:1;stroke:none;stroke-width:1px;stroke-linecap:butt;stroke-linejoin:miter;stroke-opacity:1"
     x="196.98848"
     y="148.71901"
     id="text3375"
     sodipodi:linespacing="125%"
     transform="scale(0.97814645,1.0223418)"><tspan
       sodipodi:role="line"
       id="tspan3377"
       x="196.98848"
       y="148.71901">G</tspan></text>
<text
     xml:space="preserve"
     style="font-style:normal;font-variant:normal;font-weight:normal;font-stretch:normal;font-size:125.80463409px;line-height:125%;font-family:Abuse;-inkscape-font-specification:Abuse;letter-spacing:0px;word-spacing:0px;fill:#ffffff;fill-opacity:1;stroke:none;stroke-width:1px;stroke-linecap:butt;stroke-linejoin:miter;stroke-opacity:1"
     x="64.082062"
     y="147.25298"
     id="text3375-5"
     sodipodi:linespacing="125%"
     transform="scale(0.97814654,1.0223417)"><tspan
       sodipodi:role="line"
       id="tspan3377-4"
       x="64.082062"
       y="147.25298">O</tspan></text>
<text
     xml:space="preserve"
     style="font-style:normal;font-variant:normal;font-weight:normal;font-stretch:normal;font-size:125.80463409px;line-height:125%;font-family:Abuse;-inkscape-font-specification:Abuse;letter-spacing:0px;word-spacing:0px;fill:#ffffff;fill-opacity:1;stroke:none;stroke-width:1px;stroke-linecap:butt;stroke-linejoin:miter;stroke-opacity:1"
     x="139.7028"
     y="215.44743"
     id="text3375-5-6"
     sodipodi:linespacing="125%"
     transform="scale(0.97814645,1.0223418)"><tspan
       sodipodi:role="line"
       id="tspan3377-4-8"
       x="139.7028"
       y="215.44743"
       style="font-style:normal;font-variant:normal;font-weight:normal;font-stretch:normal;font-family:Abuse;-inkscape-font-specification:Abuse">L</tspan></text>
</svg>